<?xml version="1.0" standalone="no"?>
<!DOCTYPE svg PUBLIC "-//W3C//DTD SVG 20010904//EN"
 "http://www.w3.org/TR/2001/REC-SVG-20010904/DTD/svg10.dtd">
<svg version="1.0" xmlns="http://www.w3.org/2000/svg"
 width="512.000000pt" height="512.000000pt" viewBox="0 0 512.000000 512.000000"
 preserveAspectRatio="xMidYMid meet">
<metadata>
Created by potrace 1.14, written by Peter Selinger 2001-2017
</metadata>
<g transform="translate(0.000000,512.000000) scale(0.100000,-0.100000)"
fill="#000000" stroke="none">
<path d="M1840 4124 c-420 -12 -822 -42 -977 -73 -162 -34 -274 -101 -364
-219 -80 -106 -116 -229 -148 -515 -74 -647 -34 -1607 79 -1909 43 -116 161
-237 283 -293 112 -52 322 -80 782 -107 302 -17 1828 -17 2130 0 694 40 835
79 985 268 90 114 125 229 159 527 74 649 34 1607 -79 1911 -46 122 -184 256
-314 305 -109 41 -325 68 -726 91 -173 11 -1556 21 -1810 14z m859 -1229 c314
-181 571 -332 571 -335 0 -5 -1128 -660 -1151 -668 -5 -2 -9 275 -9 668 0 393
4 670 9 668 5 -1 266 -151 580 -333z"/>
</g>
</svg>
